<svg width="19" height="19" viewBox="0 0 19 19" fill="none" xmlns="http://www.w3.org/2000/svg">
<path d="M13.0375 1.5337C14.0536 1.53673 15.0272 1.94174 15.7458 2.66025C16.4643 3.37877 16.8693 4.35242 16.8723 5.36856V13.0375C16.8693 14.0536 16.4643 15.0272 15.7458 15.7458C15.0272 16.4643 14.0536 16.8693 13.0375 16.8723H5.36856C4.35242 16.8693 3.37877 16.4643 2.66025 15.7458C1.94174 15.0272 1.53673 14.0536 1.5337 13.0375V5.36856C1.53673 4.35242 1.94174 3.37877 2.66025 2.66025C3.37877 1.94174 4.35242 1.53673 5.36856 1.5337H13.0375ZM13.0375 0H5.36856C2.41579 0 0 2.41579 0 5.36856V13.0375C0 15.9902 2.41579 18.406 5.36856 18.406H13.0375C15.9902 18.406 18.406 15.9902 18.406 13.0375V5.36856C18.406 2.41579 15.9902 0 13.0375 0Z" fill="#292C35"/>
<path d="M14.1879 5.36844C13.9604 5.36844 13.738 5.30097 13.5488 5.17457C13.3596 5.04816 13.2122 4.8685 13.1251 4.65829C13.038 4.44809 13.0152 4.21679 13.0596 3.99364C13.104 3.77049 13.2136 3.56551 13.3745 3.40463C13.5353 3.24374 13.7403 3.13418 13.9635 3.08979C14.1866 3.04541 14.4179 3.06819 14.6281 3.15526C14.8383 3.24232 15.018 3.38977 15.1444 3.57895C15.2708 3.76813 15.3383 3.99054 15.3383 4.21806C15.3386 4.36923 15.3091 4.51896 15.2514 4.65868C15.1937 4.7984 15.1089 4.92534 15.0021 5.03223C14.8952 5.13912 14.7682 5.22384 14.6285 5.28154C14.4888 5.33923 14.3391 5.36877 14.1879 5.36844ZM9.20307 6.13508C9.80982 6.13508 10.403 6.31501 10.9075 6.6521C11.4119 6.9892 11.8052 7.46832 12.0374 8.02889C12.2695 8.58946 12.3303 9.20629 12.2119 9.80139C12.0936 10.3965 11.8014 10.9431 11.3723 11.3722C10.9433 11.8012 10.3967 12.0934 9.80157 12.2117C9.20647 12.3301 8.58964 12.2694 8.02907 12.0372C7.4685 11.805 6.98938 11.4118 6.65228 10.9073C6.31519 10.4028 6.13526 9.80964 6.13526 9.20289C6.13613 8.38952 6.45963 7.60972 7.03476 7.03458C7.6099 6.45945 8.3897 6.13595 9.20307 6.13508ZM9.20307 4.60139C8.29298 4.60139 7.40332 4.87126 6.64661 5.37688C5.8899 5.8825 5.30011 6.60116 4.95183 7.44197C4.60356 8.28279 4.51243 9.208 4.68998 10.1006C4.86753 10.9932 5.30578 11.8131 5.94931 12.4566C6.59285 13.1002 7.41276 13.5384 8.30536 13.716C9.19796 13.8935 10.1232 13.8024 10.964 13.4541C11.8048 13.1058 12.5235 12.5161 13.0291 11.7593C13.5347 11.0026 13.8046 10.113 13.8046 9.20289C13.8046 7.9825 13.3198 6.81209 12.4568 5.94914C11.5939 5.08619 10.4235 4.60139 9.20307 4.60139Z" fill="#292C35"/>
</svg>
