<svg width="22" height="22" viewBox="0 0 22 22" fill="none" xmlns="http://www.w3.org/2000/svg">
  <path d="M17.944 6.1875H4.05653C3.88736 6.18829 3.72427 6.25067 3.59774 6.36296C3.47121 6.47525 3.38991 6.62978 3.36903 6.79766L2.14871 17.7977C2.13786 17.8935 2.1473 17.9906 2.17641 18.0825C2.20552 18.1745 2.25365 18.2593 2.31769 18.3314C2.38172 18.4035 2.46021 18.4614 2.54806 18.5012C2.63592 18.541 2.73117 18.5619 2.82762 18.5625H19.1729C19.2694 18.5619 19.3646 18.541 19.4525 18.5012C19.5403 18.4614 19.6188 18.4035 19.6829 18.3314C19.7469 18.2593 19.795 18.1745 19.8241 18.0825C19.8533 17.9906 19.8627 17.8935 19.8518 17.7977L18.6315 6.79766C18.6106 6.62978 18.5293 6.47525 18.4028 6.36296C18.2763 6.25067 18.1132 6.18829 17.944 6.1875V6.1875Z" stroke="#22425A" stroke-width="1.2" stroke-linecap="round" stroke-linejoin="round"/>
  <path d="M7.5625 8.9375V6.1875C7.5625 5.27582 7.92466 4.40148 8.56932 3.75682C9.21398 3.11216 10.0883 2.75 11 2.75C11.9117 2.75 12.786 3.11216 13.4307 3.75682C14.0753 4.40148 14.4375 5.27582 14.4375 6.1875V8.9375" stroke="#22425A" stroke-width="1.2" stroke-linecap="round" stroke-linejoin="round"/>
</svg>
