<svg width="1354" height="194" viewBox="0 0 1354 194" fill="none" xmlns="http://www.w3.org/2000/svg">
<path d="M0 184.486V3.66971C0 1.66805 1.74221 0 3.83286 0H70.3853C80.4901 0 89.898 1.66805 98.6091 4.67054C107.32 7.67303 114.637 12.3436 120.561 18.0149C126.833 23.6863 131.363 30.3585 134.847 38.3651C138.331 46.3718 140.074 55.0456 140.074 64.3867C140.074 74.0614 138.331 82.7352 134.847 90.7419C131.363 98.7485 126.484 105.421 120.212 111.092C113.941 116.763 106.275 121.1 97.5638 124.103C88.8527 127.105 79.0963 128.773 68.6431 128.773H52.6147C50.5241 128.773 48.7819 130.441 48.7819 132.443V184.153C48.7819 186.154 47.0397 187.822 44.949 187.822H3.83286C1.74221 188.156 0 186.488 0 184.486ZM49.1303 42.3684V87.0722C49.1303 89.0738 50.8725 90.7419 52.9632 90.7419H59.2351C69.6884 90.7419 77.7026 88.4066 83.2776 84.0697C88.8527 79.3991 91.6402 73.0605 91.6402 64.3867C91.6402 47.039 81.187 38.3651 59.932 38.3651H53.3116C50.8725 38.6987 49.1303 40.3668 49.1303 42.3684Z" fill="#F3F3F3"/>
<path d="M153.663 53.3782H190.947C193.037 53.3782 194.78 55.0463 194.78 57.0479V135.446C194.78 149.124 200.703 156.13 212.899 156.13C219.17 156.13 224.049 154.128 227.533 150.125C231.018 146.122 232.76 140.784 232.76 134.112V57.3815C232.76 55.3799 234.502 53.7118 236.593 53.7118H273.876C275.966 53.7118 277.709 55.3799 277.709 57.3815V184.487C277.709 186.489 275.966 188.157 273.876 188.157H237.289C235.199 188.157 233.457 186.489 233.457 184.487V177.481H232.411C229.275 182.152 224.397 185.821 217.428 188.49C210.808 191.159 203.491 192.493 195.476 192.493C181.539 192.493 170.389 188.49 162.026 180.484C153.663 172.477 149.482 161.801 149.482 148.457V57.0479C149.482 55.0463 151.224 53.3782 153.663 53.3782Z" fill="#F3F3F3"/>
<path fill-rule="evenodd" clip-rule="evenodd" d="M536.217 187.383H573.5C575.591 187.383 577.333 185.715 577.681 183.38V106.649C577.681 99.9771 579.424 94.6394 582.908 90.636C586.392 86.6327 590.922 84.6311 596.846 84.6311C607.996 84.6311 613.571 91.3033 613.571 103.98V183.046C613.571 185.048 615.313 186.716 617.404 186.716H655.036C657.126 186.716 658.868 185.048 658.868 183.046V91.6369C658.868 85.2983 657.475 79.2933 655.384 73.9556C652.945 68.6178 650.157 63.9473 645.976 60.2776C641.795 56.6079 636.917 53.6054 631.341 51.6037C625.766 49.6021 619.494 48.6012 612.874 48.6012C609.39 48.6012 605.905 48.9348 601.724 49.6021C597.891 50.2693 593.71 51.2701 589.877 52.9382C586.044 54.6062 582.211 56.2742 579.075 58.6095C575.939 60.6112 573.5 63.2801 571.758 66.6162H570.364C562.35 54.6062 549.458 48.6012 532.732 48.6012C524.718 48.6012 517.749 49.9357 511.477 52.6045C505.206 55.2734 500.975 57.5547 496.967 62.0314L495.449 63.6137L490.621 69.3119C488.803 66.2002 486.685 63.4156 483.987 61.0477C479.806 57.3779 474.928 54.3755 469.353 52.3738C463.777 50.3721 457.505 49.3713 450.885 49.3713C447.401 49.3713 443.916 49.7049 439.735 50.3721C435.902 51.0394 431.721 52.0402 427.888 53.7082L427.888 53.7083C424.055 55.3763 420.222 57.0444 417.086 59.3796C413.95 61.3813 411.511 64.0501 409.769 67.3862H408.375C400.361 55.3763 387.469 49.3713 370.743 49.3713C362.729 49.3713 355.76 50.7058 349.488 53.3746C343.217 56.0435 338.338 59.7132 335.202 64.3837H333.46V57.0443C333.46 55.0427 331.718 53.3746 329.627 53.3746H293.389C291.299 53.3746 289.556 55.0427 289.556 57.0443V184.483C289.556 186.485 291.299 188.153 293.389 188.153H331.021C333.112 188.153 334.854 186.485 334.854 184.483V107.753C334.854 101.081 336.248 95.7431 339.732 91.7397C343.217 87.7364 347.746 85.7348 353.67 85.7348C364.82 85.7348 370.395 92.0734 370.395 105.084V184.483C370.395 186.485 372.137 188.153 374.228 188.153H411.511C413.602 188.153 415.344 186.485 415.692 184.15V107.419C415.692 100.747 417.435 95.4095 420.919 91.4061C424.404 87.4028 428.933 85.4012 434.857 85.4012C445.486 85.4012 451.049 91.4642 451.545 103.012V183.713C451.545 184.135 451.623 184.541 451.764 184.921C452.262 186.396 453.725 187.486 455.415 187.486H493.047C495.137 187.486 496.879 185.818 496.879 183.816V105.16C497.12 99.3318 498.56 94.6016 501.721 90.9697C505.206 86.9663 509.735 84.9647 515.659 84.9647C526.809 84.9647 532.384 91.3033 532.384 104.314V183.713C532.384 185.715 534.126 187.383 536.217 187.383Z" fill="#F3F3F3"/>
<path d="M694.501 185.993V5.17622C694.501 3.17456 696.243 1.50652 698.334 1.50652H764.886C774.991 1.50652 784.399 3.17456 793.11 6.17705C801.821 9.17954 809.139 13.8501 815.062 19.5214C821.334 25.1928 825.864 31.865 829.348 39.8716C832.833 47.8783 834.575 56.5521 834.575 65.8932C834.575 75.5679 832.833 84.2417 829.348 92.2484C825.864 100.255 820.986 106.927 814.714 112.599C808.442 118.27 800.776 122.607 792.065 125.609C783.354 128.612 773.597 130.28 763.144 130.28H747.116C745.025 130.28 743.283 131.948 743.283 133.95V185.659C743.283 187.661 741.541 189.329 739.45 189.329H698.334C696.243 189.662 694.501 187.994 694.501 185.993ZM743.631 43.875V88.5787C743.631 90.5803 745.374 92.2484 747.464 92.2484H753.736C764.189 92.2484 772.204 89.9131 777.779 85.5762C783.354 80.9056 786.141 74.5671 786.141 65.8932C786.141 48.5455 775.688 39.8716 754.433 39.8716H747.813C745.374 40.2053 743.631 41.8733 743.631 43.875Z" fill="#F3F3F3"/>
<path d="M848.165 54.8847H885.448C887.538 54.8847 889.281 56.5528 889.281 58.5544V136.953C889.281 150.631 895.204 157.637 907.4 157.637C913.672 157.637 918.55 155.635 922.034 151.632C925.519 147.628 927.261 142.29 927.261 135.618V58.888C927.261 56.8864 929.003 55.2183 931.094 55.2183H968.377C970.468 55.2183 972.21 56.8864 972.21 58.888V185.993C972.21 187.995 970.468 189.663 968.377 189.663H931.791C929.7 189.663 927.958 187.995 927.958 185.993V178.988H926.912C923.776 183.658 918.898 187.328 911.929 189.997C905.309 192.666 897.992 194 889.978 194C876.04 194 864.89 189.997 856.527 181.99C848.165 173.983 843.983 163.308 843.983 149.964V58.5544C843.983 56.5528 845.725 54.8847 848.165 54.8847Z" fill="#F3F3F3"/>
<path fill-rule="evenodd" clip-rule="evenodd" d="M1230.72 188.889H1268C1270.09 188.889 1271.83 187.221 1272.18 184.886V108.156C1272.18 101.484 1273.92 96.1459 1277.41 92.1425C1280.89 88.1392 1285.42 86.1376 1291.35 86.1376C1302.5 86.1376 1308.07 92.8098 1308.07 105.487V184.552C1308.07 186.554 1309.81 188.222 1311.9 188.222H1349.54C1351.63 188.222 1353.37 186.554 1353.37 184.552V93.1434C1353.37 86.8048 1351.98 80.7998 1349.89 75.4621C1347.45 70.1243 1344.66 65.4538 1340.48 61.7841C1336.3 58.1144 1331.42 55.1119 1325.84 53.1102C1320.27 51.1086 1314 50.1077 1307.38 50.1077C1303.89 50.1077 1300.41 50.4413 1296.23 51.1086C1292.39 51.7758 1288.21 52.7766 1284.38 54.4447C1280.55 56.1127 1276.71 57.7807 1273.58 60.116C1270.44 62.1177 1268 64.7866 1266.26 68.1227H1264.87C1256.85 56.1127 1243.96 50.1077 1227.23 50.1077C1219.22 50.1077 1212.25 51.4422 1205.98 54.111C1199.71 56.7799 1195.48 59.0612 1191.47 63.5379L1189.95 65.1202L1185.12 70.8184C1183.3 67.7067 1181.19 64.9221 1178.49 62.5541C1174.31 58.8844 1169.43 55.8819 1163.85 53.8803C1158.28 51.8786 1152.01 50.8778 1145.39 50.8778C1141.9 50.8778 1138.42 51.2114 1134.24 51.8786C1130.4 52.5458 1126.22 53.5467 1122.39 55.2147L1122.39 55.2148C1118.56 56.8828 1114.72 58.5509 1111.59 60.8861C1108.45 62.8877 1106.01 65.5566 1104.27 68.8927H1102.88C1094.86 56.8828 1081.97 50.8778 1065.24 50.8778C1057.23 50.8778 1050.26 52.2122 1043.99 54.8811C1037.72 57.55 1032.84 61.2197 1029.7 65.8902H1027.96V58.5508C1027.96 56.5492 1026.22 54.8811 1024.13 54.8811H987.89C985.8 54.8811 984.058 56.5492 984.058 58.5508V185.99C984.058 187.991 985.8 189.659 987.89 189.659H1025.52C1027.61 189.659 1029.36 187.991 1029.36 185.99V109.26C1029.36 102.587 1030.75 97.2496 1034.23 93.2462C1037.72 89.2429 1042.25 87.2413 1048.17 87.2413C1059.32 87.2413 1064.9 93.5798 1064.9 106.591V185.99C1064.9 187.991 1066.64 189.659 1068.73 189.659H1106.01C1108.1 189.659 1109.85 187.991 1110.19 185.656V108.926C1110.19 102.254 1111.94 96.9159 1115.42 92.9126C1118.9 88.9093 1123.43 86.9076 1129.36 86.9076C1139.99 86.9076 1145.55 92.9705 1146.05 104.518V185.22C1146.05 185.641 1146.12 186.048 1146.27 186.428C1146.76 187.903 1148.23 188.992 1149.92 188.992H1187.55C1189.64 188.992 1191.38 187.324 1191.38 185.323V106.667C1191.62 100.838 1193.06 96.108 1196.22 92.4762C1199.71 88.4728 1204.24 86.4712 1210.16 86.4712C1221.31 86.4712 1226.89 92.8098 1226.89 105.821V185.22C1226.89 187.221 1228.63 188.889 1230.72 188.889Z" fill="#F3F3F3"/>
</svg>
