<svg width="202" height="29" viewBox="0 0 202 29" fill="none" xmlns="http://www.w3.org/2000/svg">
  <path d="M0 26.9335V0.535748C0 0.243522 0.254349 0 0.559567 0H10.2757C11.7509 0 13.1244 0.243522 14.3961 0.681861C15.6679 1.1202 16.7361 1.80206 17.6009 2.63004C18.5166 3.45801 19.1779 4.4321 19.6866 5.601C20.1953 6.76991 20.4496 8.03622 20.4496 9.39994C20.4496 10.8124 20.1953 12.0787 19.6866 13.2476C19.1779 14.4165 18.4657 15.3906 17.5501 16.2185C16.6344 17.0465 15.5153 17.6797 14.2435 18.118C12.9718 18.5564 11.5474 18.7999 10.0213 18.7999H7.68133C7.37611 18.7999 7.12176 19.0434 7.12176 19.3356V26.8848C7.12176 27.177 6.86741 27.4206 6.56219 27.4206H0.559567C0.254349 27.4693 0 27.2257 0 26.9335ZM7.17263 6.18545V12.7118C7.17263 13.0041 7.42698 13.2476 7.7322 13.2476H8.64785C10.1739 13.2476 11.3439 12.9067 12.1579 12.2735C12.9718 11.5916 13.3787 10.6663 13.3787 9.39994C13.3787 6.86731 11.8526 5.601 8.74959 5.601H7.78307C7.42698 5.64971 7.17263 5.89323 7.17263 6.18545Z" fill="#22425A"/>
  <path d="M22.4337 7.79395H27.8768C28.182 7.79395 28.4364 8.03747 28.4364 8.32969V19.7752C28.4364 21.7721 29.3011 22.7949 31.0816 22.7949C31.9972 22.7949 32.7094 22.5027 33.2181 21.9182C33.7268 21.3338 33.9812 20.5545 33.9812 19.5804V8.3784C33.9812 8.08617 34.2355 7.84265 34.5407 7.84265H39.9838C40.289 7.84265 40.5433 8.08617 40.5433 8.3784V26.9348C40.5433 27.227 40.289 27.4705 39.9838 27.4705H34.6425C34.3372 27.4705 34.0829 27.227 34.0829 26.9348V25.912H33.9303C33.4725 26.5938 32.7603 27.1296 31.7429 27.5192C30.7764 27.9088 29.7081 28.1037 28.5381 28.1037C26.5033 28.1037 24.8755 27.5192 23.6546 26.3503C22.4337 25.1814 21.8233 23.6229 21.8233 21.6747V8.32969C21.8233 8.03747 22.0776 7.79395 22.4337 7.79395Z" fill="#22425A"/>
  <path fill-rule="evenodd" clip-rule="evenodd" d="M78.2712 27.3562H83.7142C84.0195 27.3562 84.2738 27.1127 84.3247 26.7718V15.5698C84.3247 14.5957 84.579 13.8164 85.0877 13.232C85.5964 12.6475 86.2577 12.3553 87.1225 12.3553C88.7503 12.3553 89.5643 13.3294 89.5643 15.1801V26.7231C89.5643 27.0153 89.8186 27.2588 90.1238 27.2588H95.6178C95.923 27.2588 96.1773 27.0153 96.1773 26.7231V13.3781C96.1773 12.4527 95.9739 11.576 95.6686 10.7967C95.3125 10.0175 94.9056 9.33561 94.2951 8.79987C93.6847 8.26412 92.9725 7.82578 92.1586 7.53355C91.3447 7.24133 90.429 7.09521 89.4625 7.09521C88.9538 7.09521 88.4451 7.14392 87.8347 7.24133C87.2751 7.33874 86.6647 7.48485 86.1051 7.72837C85.5456 7.97189 84.986 8.21541 84.5282 8.55634C84.0703 8.84857 83.7142 9.23821 83.4599 9.72525H83.2564C82.0864 7.97189 80.2042 7.09521 77.7625 7.09521C76.5925 7.09521 75.5751 7.29003 74.6594 7.67967C73.7438 8.0693 73.1261 8.40234 72.541 9.05591L72.3194 9.28691L71.6177 10.1151C71.3524 9.66137 71.0435 9.25532 70.65 8.90997C70.0396 8.37422 69.3274 7.93589 68.5135 7.64366C67.6996 7.35143 66.7839 7.20532 65.8174 7.20532C65.3087 7.20532 64.8 7.25403 64.1896 7.35143C63.63 7.44884 63.0196 7.59496 62.46 7.83848L62.46 7.83849C61.9004 8.08201 61.3408 8.32553 60.883 8.66645C60.4252 8.95868 60.0691 9.34831 59.8148 9.83536H59.6113C58.4413 8.082 56.5591 7.20532 54.1174 7.20532C52.9473 7.20532 51.93 7.40014 51.0143 7.78977C50.0986 8.17941 49.3865 8.71515 48.9286 9.39702H48.6743V8.32552C48.6743 8.03329 48.4199 7.78977 48.1147 7.78977H42.8243C42.519 7.78977 42.2647 8.03329 42.2647 8.32552V26.9306C42.2647 27.2228 42.519 27.4663 42.8243 27.4663H48.3182C48.6234 27.4663 48.8778 27.2228 48.8778 26.9306V15.7286C48.8778 14.7545 49.0812 13.9752 49.5899 13.3908C50.0986 12.8063 50.7599 12.5141 51.6247 12.5141C53.2526 12.5141 54.0665 13.4395 54.0665 15.3389V26.9306C54.0665 27.2228 54.3208 27.4663 54.626 27.4663H60.0691C60.3743 27.4663 60.6287 27.2228 60.6795 26.8819V15.6799C60.6795 14.7058 60.9339 13.9265 61.4426 13.3421C61.9513 12.7576 62.6126 12.4654 63.4774 12.4654C65.0048 12.4654 65.8156 13.323 65.9098 14.9576V26.8205C65.9098 26.9357 65.9494 27.0434 66.016 27.1315C66.1174 27.274 66.2881 27.3689 66.4787 27.3689H71.9726C72.2778 27.3689 72.5322 27.1254 72.5322 26.8332V15.2702C72.5772 14.4569 72.7885 13.7937 73.2351 13.2807C73.7438 12.6962 74.4051 12.404 75.2699 12.404C76.8977 12.404 77.7116 13.3294 77.7116 15.2288V26.8205C77.7116 27.1127 77.966 27.3562 78.2712 27.3562Z" fill="#22425A"/>
  <path d="M105 26.9335V0.535748C105 0.243522 105.254 0 105.56 0H115.276C116.751 0 118.124 0.243522 119.396 0.681861C120.668 1.1202 121.736 1.80206 122.601 2.63004C123.517 3.45801 124.178 4.4321 124.687 5.601C125.195 6.76991 125.45 8.03622 125.45 9.39994C125.45 10.8124 125.195 12.0787 124.687 13.2476C124.178 14.4165 123.466 15.3906 122.55 16.2185C121.634 17.0465 120.515 17.6797 119.244 18.118C117.972 18.5564 116.547 18.7999 115.021 18.7999H112.681C112.376 18.7999 112.122 19.0434 112.122 19.3356V26.8848C112.122 27.177 111.867 27.4206 111.562 27.4206H105.56C105.254 27.4693 105 27.2257 105 26.9335ZM112.173 6.18545V12.7118C112.173 13.0041 112.427 13.2476 112.732 13.2476H113.648C115.174 13.2476 116.344 12.9067 117.158 12.2735C117.972 11.5916 118.379 10.6663 118.379 9.39994C118.379 6.86731 116.853 5.601 113.75 5.601H112.783C112.427 5.64971 112.173 5.89323 112.173 6.18545Z" fill="#22425A"/>
  <path d="M127.434 7.79395H132.877C133.182 7.79395 133.436 8.03747 133.436 8.32969V19.7752C133.436 21.7721 134.301 22.7949 136.082 22.7949C136.997 22.7949 137.709 22.5027 138.218 21.9182C138.727 21.3338 138.981 20.5545 138.981 19.5804V8.3784C138.981 8.08617 139.236 7.84265 139.541 7.84265H144.984C145.289 7.84265 145.543 8.08617 145.543 8.3784V26.9348C145.543 27.227 145.289 27.4705 144.984 27.4705H139.642C139.337 27.4705 139.083 27.227 139.083 26.9348V25.912H138.93C138.472 26.5938 137.76 27.1296 136.743 27.5192C135.776 27.9088 134.708 28.1037 133.538 28.1037C131.503 28.1037 129.875 27.5192 128.655 26.3503C127.434 25.1814 126.823 23.6229 126.823 21.6747V8.32969C126.823 8.03747 127.078 7.79395 127.434 7.79395Z" fill="#22425A"/>
  <path fill-rule="evenodd" clip-rule="evenodd" d="M183.271 27.3562H188.714C189.019 27.3562 189.274 27.1127 189.325 26.7718V15.5698C189.325 14.5957 189.579 13.8164 190.088 13.232C190.596 12.6475 191.258 12.3553 192.123 12.3553C193.75 12.3553 194.564 13.3294 194.564 15.1801V26.7231C194.564 27.0153 194.819 27.2588 195.124 27.2588H200.618C200.923 27.2588 201.177 27.0153 201.177 26.7231V13.3781C201.177 12.4527 200.974 11.576 200.669 10.7967C200.313 10.0175 199.906 9.33561 199.295 8.79987C198.685 8.26412 197.973 7.82578 197.159 7.53355C196.345 7.24133 195.429 7.09521 194.463 7.09521C193.954 7.09521 193.445 7.14392 192.835 7.24133C192.275 7.33874 191.665 7.48485 191.105 7.72837C190.546 7.97189 189.986 8.21541 189.528 8.55634C189.07 8.84857 188.714 9.23821 188.46 9.72525H188.256C187.086 7.97189 185.204 7.09521 182.762 7.09521C181.592 7.09521 180.575 7.29003 179.659 7.67967C178.744 8.0693 178.126 8.40234 177.541 9.05591L177.319 9.28691L176.618 10.1151C176.352 9.66137 176.043 9.25532 175.65 8.90997C175.04 8.37422 174.327 7.93589 173.513 7.64366C172.7 7.35143 171.784 7.20532 170.817 7.20532C170.309 7.20532 169.8 7.25403 169.19 7.35143C168.63 7.44884 168.02 7.59496 167.46 7.83848L167.46 7.83849C166.9 8.08201 166.341 8.32553 165.883 8.66645C165.425 8.95868 165.069 9.34831 164.815 9.83536H164.611C163.441 8.082 161.559 7.20532 159.117 7.20532C157.947 7.20532 156.93 7.40014 156.014 7.78977C155.099 8.17941 154.386 8.71515 153.929 9.39702H153.674V8.32552C153.674 8.03329 153.42 7.78977 153.115 7.78977H147.824C147.519 7.78977 147.265 8.03329 147.265 8.32552V26.9306C147.265 27.2228 147.519 27.4663 147.824 27.4663H153.318C153.623 27.4663 153.878 27.2228 153.878 26.9306V15.7286C153.878 14.7545 154.081 13.9752 154.59 13.3908C155.099 12.8063 155.76 12.5141 156.625 12.5141C158.253 12.5141 159.066 13.4395 159.066 15.3389V26.9306C159.066 27.2228 159.321 27.4663 159.626 27.4663H165.069C165.374 27.4663 165.629 27.2228 165.68 26.8819V15.6799C165.68 14.7058 165.934 13.9265 166.443 13.3421C166.951 12.7576 167.613 12.4654 168.477 12.4654C170.005 12.4654 170.816 13.323 170.91 14.9576V26.8205C170.91 26.9357 170.949 27.0434 171.016 27.1315C171.117 27.274 171.288 27.3689 171.479 27.3689H176.973C177.278 27.3689 177.532 27.1254 177.532 26.8332V15.2702C177.577 14.4569 177.789 13.7937 178.235 13.2807C178.744 12.6962 179.405 12.404 180.27 12.404C181.898 12.404 182.712 13.3294 182.712 15.2288V26.8205C182.712 27.1127 182.966 27.3562 183.271 27.3562Z" fill="#22425A"/>
</svg>