<svg width="22" height="22" viewBox="0 0 22 22" fill="none" xmlns="http://www.w3.org/2000/svg">
  <path d="M11 19.25C15.5563 19.25 19.25 15.5563 19.25 11C19.25 6.44365 15.5563 2.75 11 2.75C6.44365 2.75 2.75 6.44365 2.75 11C2.75 15.5563 6.44365 19.25 11 19.25Z" stroke="#22425A" stroke-width="1.2" stroke-linecap="round" stroke-linejoin="round"/>
  <path d="M7.90625 10.3125C8.47579 10.3125 8.9375 9.85079 8.9375 9.28125C8.9375 8.71171 8.47579 8.25 7.90625 8.25C7.33671 8.25 6.875 8.71171 6.875 9.28125C6.875 9.85079 7.33671 10.3125 7.90625 10.3125Z" fill="#22425A"/>
  <path d="M14.0938 10.3125C14.6633 10.3125 15.125 9.85079 15.125 9.28125C15.125 8.71171 14.6633 8.25 14.0938 8.25C13.5242 8.25 13.0625 8.71171 13.0625 9.28125C13.0625 9.85079 13.5242 10.3125 14.0938 10.3125Z" fill="#22425A"/>
  <path d="M14.5795 13.0625C14.2161 13.6886 13.6946 14.2083 13.0672 14.5696C12.4398 14.9309 11.7285 15.121 11.0045 15.121C10.2805 15.121 9.56925 14.9309 8.94185 14.5696C8.31446 14.2083 7.79294 13.6886 7.4295 13.0625" stroke="#22425A" stroke-width="1.2" stroke-linecap="round" stroke-linejoin="round"/>
</svg>
