<svg width="21" height="17" viewBox="0 0 21 17" fill="none" xmlns="http://www.w3.org/2000/svg">
<path d="M20.3684 2.05868C19.6348 2.38681 18.8586 2.60298 18.0644 2.70037C18.8991 2.19725 19.5268 1.39794 19.8298 0.452355C19.0406 0.927372 18.1787 1.26067 17.2809 1.43796C16.9029 1.0301 16.4482 0.705637 15.9446 0.484291C15.4409 0.262945 14.8988 0.149341 14.3511 0.150382C12.1339 0.150382 10.3396 1.97061 10.3396 4.21443C10.3381 4.52654 10.3728 4.83772 10.4431 5.14132C8.85323 5.0646 7.29639 4.64709 5.87222 3.9155C4.44805 3.18392 3.1879 2.15437 2.1724 0.892732C1.81614 1.51099 1.62773 2.2164 1.62686 2.93524C1.62686 4.34445 2.34108 5.59009 3.41953 6.31985C2.78058 6.30424 2.15472 6.13016 1.59508 5.81237V5.8627C1.59508 7.83391 2.98033 9.47379 4.81374 9.84706C4.46897 9.94167 4.11369 9.98961 3.75688 9.98966C3.5037 9.99012 3.25109 9.96483 3.00273 9.91417C3.51242 11.5289 4.99586 12.7032 6.75308 12.7368C5.32521 13.8696 3.57216 14.4818 1.76946 14.4773C1.44948 14.4768 1.12979 14.4572 0.812012 14.4186C2.6459 15.6241 4.77766 16.2617 6.95353 16.2556C14.3426 16.2556 18.3794 10.061 18.3794 4.68836C18.3794 4.51221 18.3749 4.33606 18.3667 4.1641C19.1502 3.59038 19.8281 2.87741 20.3684 2.05868Z" fill="#292C35"/>
</svg>
